<svg width="24" height="24" version="1.1" viewBox="0 0 3072 3072" xmlns="http://www.w3.org/2000/svg">
 <path d="m2816 2316q0 86.2-60.34 146.5l-293.1 293.1q-60.34 60.34-146.5 60.34t-146.5-60.34l-633.5-633.5-633.5 633.5q-60.34 60.34-146.5 60.34-86.2 0-146.5-60.34l-293.1-293.1q-60.34-60.34-60.34-146.5t60.34-146.5l633.5-633.5-633.5-633.5q-60.34-60.34-60.34-146.5 0-86.2 60.34-146.5l293.1-293.1q60.34-60.34 146.5-60.34 86.2 0 146.5 60.34l633.5 633.5 633.5-633.5q60.34-60.34 146.5-60.34t146.5 60.34l293.1 293.1q60.34 60.34 60.34 146.5 0 86.2-60.34 146.5l-633.5 633.5 633.5 633.5q60.34 60.34 60.34 146.5z" fill="#dd4646"/>
</svg>
