<svg width="24" height="24" version="1.1" viewBox="0 0 3308 3308" xmlns="http://www.w3.org/2000/svg">
 <path d="m2836 1654q-233.8-395.4-586.2-591.4 93.85 174.2 93.85 376.9 0 309.9-202.3 530.2-202.3 220.3-486.9 220.3t-486.9-220.3q-202.3-220.3-202.3-530.2 0-202.7 93.85-376.9-352.3 196-586.2 591.4 204.6 343.4 513.1 547 308.5 203.5 668.5 203.5 360 0 668.5-203.5 308.5-203.5 513.1-547zm-1108-643.3q0-33.5-21.54-56.96-21.54-23.45-52.31-23.45-192.3 0-330 149.9-137.7 149.9-137.7 359.3 0 33.5 21.54 56.96t52.31 23.45 52.31-23.45q21.54-23.45 21.54-56.96 0-144.1 93.85-246.3 93.85-102.2 226.2-102.2 30.77 0 52.31-23.45 21.54-23.45 21.54-56.96zm1305 643.3q0 56.96-30.77 115.6-215.4 385.3-579.2 617.3-363.8 232-768.5 232t-768.5-232.9q-363.8-232.9-579.2-616.5-30.77-58.63-30.77-115.6 0-56.96 30.77-115.6 215.4-383.6 579.2-616.5 363.8-232.9 768.5-232.9 404.6 0 768.5 232.9 363.8 232.9 579.2 616.5 30.77 58.63 30.77 115.6z" fill="#2b70bf"/>
</svg>
