<svg width="24" height="24" version="1.1" viewBox="0 0 3308 3308" xmlns="http://www.w3.org/2000/svg">
 <path d="m3033 1466v375.9q0 78.32-54.83 133.1-54.83 54.83-133.1 54.83h-814.5v814.5q0 78.32-54.83 133.1-54.83 54.83-133.1 54.83h-375.9q-78.32 0-133.1-54.83-54.83-54.83-54.83-133.1v-814.5h-814.5q-78.32 0-133.1-54.83-54.83-54.83-54.83-133.1v-375.9q0-78.32 54.83-133.1t133.1-54.83h814.5v-814.5q0-78.32 54.83-133.1 54.83-54.83 133.1-54.83h375.9q78.32 0 133.1 54.83 54.83 54.83 54.83 133.1v814.5h814.5q78.32 0 133.1 54.83t54.83 133.1z" fill="#5fa225"/>
</svg>
