<svg width="24" height="24" version="1.1" viewBox="0 0 3308 3308" xmlns="http://www.w3.org/2000/svg">
 <path d="m1130 2270 120-231.4q-133.8-103.4-209.2-260.9-75.38-157.5-75.38-333.1 0-198.6 93.85-369.2-352.3 192-586.2 579.3 256.9 423.4 656.9 615.4zm598.5-1246q0-32.82-21.54-55.79t-52.31-22.97q-192.3 0-330 146.9-137.7 146.9-137.7 352 0 32.82 21.54 55.79 21.54 22.97 52.31 22.97 30.77 0 52.31-22.97 21.54-22.97 21.54-55.79 0-141.1 93.85-241.2 93.85-100.1 226.2-100.1 30.77 0 52.31-22.97t21.54-55.79zm558.5-313.4q0 11.49-1.538 14.77-161.5 308.5-484.6 928.8-323.1 620.3-486.2 930.5l-75.38 146.1q-15.38 26.26-43.08 26.26-18.46 0-206.2-114.9-24.62-16.41-24.62-45.95 0-19.69 67.69-142.8-220-106.7-405.4-283.9-185.4-177.2-320.8-402.1-30.77-50.87-30.77-113.2 0-62.36 30.77-113.2 235.4-385.6 584.6-608.8 349.2-223.2 763.1-223.2 136.9 0 276.9 27.9l83.08-159.2q15.38-26.26 43.08-26.26 7.692 0 27.69 9.846 20 9.846 47.69 25.44t50.77 30.36q23.08 14.77 48.46 30.36 25.38 15.59 30 18.87 24.62 16.41 24.62 44.31zm56.92 733.5q0 228.1-121.5 416-121.5 187.9-321.5 269.9l430.8-823.8q12.31 73.85 12.31 137.8zm689.2 210.1q0 57.44-30.77 113.2-60 105-167.7 237.9-230.8 282.3-534.6 438.2-303.8 155.9-645.4 155.9l113.8-216.6q326.2-29.54 603.8-224.8 277.7-195.3 463.8-503.8-176.9-293.7-433.8-482.5l96.92-183.8q146.2 105 280.8 251.1t222.3 301.9q30.77 55.8 30.77 113.2z" fill="#2b70bf"/>
</svg>
