<svg width="24" height="24" version="1.1" viewBox="0 0 3308 3308" xmlns="http://www.w3.org/2000/svg">
 <path d="m936.3 2800 165.6-165.6-427.6-427.6-165.6 165.6v194.7h232.9v232.9zm951.7-1689q0-40.03-40.03-40.03-18.2 0-30.94 12.74l-986.3 986.3q-12.74 12.74-12.74 30.94 0 40.03 40.03 40.03 18.2 0 30.94-12.74l986.3-986.3q12.74-12.74 12.74-30.94zm-98.27-349.4 757 757-1514 1514h-757v-757zm1243 174.7q0 96.45-67.33 163.8l-302.1 302.1-757-757 302.1-300.3q65.51-69.15 163.8-69.15 96.45 0 165.6 69.15l427.6 425.8q67.33 70.97 67.33 165.6z" fill="#b48c08"/>
</svg>
