<svg width="24" height="24" version="1.1" viewBox="0 0 2688 2688" xmlns="http://www.w3.org/2000/svg">
 <path d="m1900 1674q0-37.92-27.71-65.62l-264-264 264-264q27.71-27.71 27.71-65.62 0-39.38-27.71-67.08l-131.2-131.2q-27.71-27.71-67.08-27.71-37.92 0-65.62 27.71l-264 264-264-264q-27.71-27.71-65.62-27.71-39.37 0-67.08 27.71l-131.2 131.2q-27.71 27.71-27.71 67.08 0 37.92 27.71 65.62l264 264-264 264q-27.71 27.71-27.71 65.62 0 39.38 27.71 67.08l131.2 131.2q27.71 27.71 67.08 27.71 37.92 0 65.62-27.71l264-264 264 264q27.71 27.71 65.62 27.71 39.38 0 67.08-27.71l131.2-131.2q27.71-27.71 27.71-67.08zm564.4-329.6q0 304.8-150.2 562.2-150.2 257.4-407.6 407.6-257.4 150.2-562.2 150.2-304.8 0-562.2-150.2t-407.6-407.6q-150.2-257.4-150.2-562.2 0-304.8 150.2-562.2 150.2-257.4 407.6-407.6 257.4-150.2 562.2-150.2 304.8 0 562.2 150.2 257.4 150.2 407.6 407.6 150.2 257.4 150.2 562.2z" fill="#999"/>
</svg>
