<?xml version="1.0" encoding="UTF-8" standalone="no"?>
<svg
   width="48"
   height="160"
   version="1.1"
   viewBox="0 0 5376 17920"
   id="svg17"
   sodipodi:docname="selector-icons.svg"
   inkscape:version="1.3.2 (091e20ef0f, 2023-11-25, custom)"
   xmlns:inkscape="http://www.inkscape.org/namespaces/inkscape"
   xmlns:sodipodi="http://sodipodi.sourceforge.net/DTD/sodipodi-0.dtd"
   xmlns:xlink="http://www.w3.org/1999/xlink"
   xmlns="http://www.w3.org/2000/svg"
   xmlns:svg="http://www.w3.org/2000/svg">
  <sodipodi:namedview
     id="namedview17"
     pagecolor="#ffffff"
     bordercolor="#666666"
     borderopacity="1.0"
     inkscape:showpageshadow="2"
     inkscape:pageopacity="0.0"
     inkscape:pagecheckerboard="0"
     inkscape:deskcolor="#d1d1d1"
     showgrid="false"
     inkscape:zoom="4.78125"
     inkscape:cx="24.052288"
     inkscape:cy="96"
     inkscape:window-width="1920"
     inkscape:window-height="1131"
     inkscape:window-x="0"
     inkscape:window-y="0"
     inkscape:window-maximized="1"
     inkscape:current-layer="svg17" />
  <defs
     id="defs6">
    <g
       id="up">
      <path
         d="m 1412,895 q 0,-27 -18,-45 L 941,397 q -18,-18 -45,-18 -27,0 -45,18 L 398,850 q -18,18 -18,45 0,27 18,45 l 91,91 q 18,18 45,18 27,0 45,-18 L 768,842 v 502 q 0,26 19,45 19,19 45,19 h 128 q 26,0 45,-19 19,-19 19,-45 V 842 l 189,189 q 19,19 45,19 26,0 45,-19 l 91,-91 q 18,-18 18,-45 z m 252,1 q 0,209 -103,385.5 Q 1458,1458 1281.5,1561 1105,1664 896,1664 687,1664 510.5,1561 334,1458 231,1281.5 128,1105 128,896 128,687 231,510.5 334,334 510.5,231 687,128 896,128 1105,128 1281.5,231 1458,334 1561,510.5 1664,687 1664,896 Z"
         id="path1" />
    </g>
    <g
       id="down">
      <path
         d="m 1412,897 q 0,-27 -18,-45 l -91,-91 q -18,-18 -45,-18 -27,0 -45,18 L 1024,950 V 448 q 0,-26 -19,-45 -19,-19 -45,-19 H 832 q -26,0 -45,19 -19,19 -19,45 V 950 L 579,761 q -19,-19 -45,-19 -26,0 -45,19 l -91,91 q -18,18 -18,45 0,27 18,45 l 453,453 q 18,18 45,18 27,0 45,-18 l 453,-453 q 18,-18 18,-45 z m 252,-1 q 0,209 -103,385.5 Q 1458,1458 1281.5,1561 1105,1664 896,1664 687,1664 510.5,1561 334,1458 231,1281.5 128,1105 128,896 128,687 231,510.5 334,334 510.5,231 687,128 896,128 1105,128 1281.5,231 1458,334 1561,510.5 1664,687 1664,896 Z"
         id="path2" />
    </g>
    <g
       id="left">
      <path
         d="M 1408,960 V 832 q 0,-26 -19,-45 -19,-19 -45,-19 H 842 l 189,-189 q 19,-19 19,-45 0,-26 -19,-45 l -91,-91 q -18,-18 -45,-18 -27,0 -45,18 L 397,851 q -18,18 -18,45 0,27 18,45 l 453,453 q 18,18 45,18 27,0 45,-18 l 91,-91 q 18,-18 18,-45 0,-27 -18,-45 L 842,1024 h 502 q 26,0 45,-19 19,-19 19,-45 z m 256,-64 q 0,209 -103,385.5 Q 1458,1458 1281.5,1561 1105,1664 896,1664 687,1664 510.5,1561 334,1458 231,1281.5 128,1105 128,896 128,687 231,510.5 334,334 510.5,231 687,128 896,128 1105,128 1281.5,231 1458,334 1561,510.5 1664,687 1664,896 Z"
         id="path3" />
    </g>
    <g
       id="right">
      <path
         d="m 1413,896 q 0,-27 -18,-45 L 942,398 q -18,-18 -45,-18 -27,0 -45,18 l -91,91 q -18,18 -18,45 0,27 18,45 L 950,768 H 448 q -26,0 -45,19 -19,19 -19,45 v 128 q 0,26 19,45 19,19 45,19 h 502 l -189,189 q -19,19 -19,45 0,26 19,45 l 91,91 q 18,18 45,18 27,0 45,-18 l 453,-453 q 18,-18 18,-45 z m 251,0 q 0,209 -103,385.5 Q 1458,1458 1281.5,1561 1105,1664 896,1664 687,1664 510.5,1561 334,1458 231,1281.5 128,1105 128,896 128,687 231,510.5 334,334 510.5,231 687,128 896,128 1105,128 1281.5,231 1458,334 1561,510.5 1664,687 1664,896 Z"
         id="path4" />
    </g>
    <g
       id="clearall">
      <path
         transform="matrix(0.75,0,0,0.75,336,336)"
         d="m 1037,1395 102,-102 q 19,-19 19,-45 0,-26 -19,-45 L 832,896 1139,589 q 19,-19 19,-45 0,-26 -19,-45 L 1037,397 q -19,-19 -45,-19 -26,0 -45,19 L 493,851 q -19,19 -19,45 0,26 19,45 l 454,454 q 19,19 45,19 26,0 45,-19 z m 627,-499 q 0,209 -103,385.5 Q 1458,1458 1281.5,1561 1105,1664 896,1664 687,1664 510.5,1561 334,1458 231,1281.5 128,1105 128,896 128,687 231,510.5 334,334 510.5,231 687,128 896,128 1105,128 1281.5,231 1458,334 1561,510.5 1664,687 1664,896 Z"
         id="path5" />
    </g>
    <g
       id="chooseall">
      <path
         transform="matrix(0.75,0,0,0.75,336,336)"
         d="m 845,1395 454,-454 q 19,-19 19,-45 0,-26 -19,-45 L 845,397 q -19,-19 -45,-19 -26,0 -45,19 L 653,499 q -19,19 -19,45 0,26 19,45 l 307,307 -307,307 q -19,19 -19,45 0,26 19,45 l 102,102 q 19,19 45,19 26,0 45,-19 z m 819,-499 q 0,209 -103,385.5 Q 1458,1458 1281.5,1561 1105,1664 896,1664 687,1664 510.5,1561 334,1458 231,1281.5 128,1105 128,896 128,687 231,510.5 334,334 510.5,231 687,128 896,128 1105,128 1281.5,231 1458,334 1561,510.5 1664,687 1664,896 Z"
         id="path6" />
    </g>
  </defs>
  <use
     transform="matrix(1.458,0,0,1.458,2725,-7803)"
     y="5376"
     fill="#447e9b"
     xlink:href="#down"
     id="use6"
     style="stroke-width:0.6857" />
  <use
     transform="matrix(1.458,0,0,1.458,2725,-2501)"
     y="3584"
     fill="#666666"
     xlink:href="#down"
     id="use7"
     style="stroke-width:0.6857" />
  <use
     transform="matrix(1.458,0,0,1.458,37.33,-10192)"
     y="12544"
     fill="#447e9b"
     xlink:href="#right"
     id="use8"
     style="stroke-width:0.6857" />
  <use
     transform="matrix(1.458,0,0,1.458,37.33,37.33)"
     fill="#666666"
     xlink:href="#up"
     id="use9"
     style="stroke-width:0.6857" />
  <use
     transform="matrix(1.458,0,0,1.458,37.33,112)"
     y="1792"
     fill="#447e9b"
     xlink:href="#up"
     id="use10"
     style="stroke-width:0.6857" />
  <use
     transform="matrix(1.458,0,0,1.458,37.33,-5040)"
     y="7168"
     fill="#666666"
     xlink:href="#left"
     id="use11"
     style="stroke-width:0.6857" />
  <use
     transform="matrix(1.458,0,0,1.458,2725,-7653)"
     y="8960"
     fill="#447e9b"
     xlink:href="#left"
     id="use12"
     style="stroke-width:0.6857" />
  <use
     transform="matrix(1.458,0,0,1.458,2725,-7579)"
     y="10752"
     fill="#666666"
     xlink:href="#right"
     id="use13"
     style="stroke-width:0.6857" />
  <use
     y="14336"
     fill="#666666"
     xlink:href="#clearall"
     id="use14"
     transform="translate(4.8e-6,-3584.016)" />
  <use
     y="16128"
     fill="#447e9b"
     xlink:href="#clearall"
     id="use15"
     transform="translate(4.8e-6,-3584.016)" />
  <use
     y="17920"
     fill="#666666"
     xlink:href="#chooseall"
     id="use16"
     transform="translate(4.8e-6,-3584.016)" />
  <use
     y="19712"
     fill="#447e9b"
     xlink:href="#chooseall"
     id="use17"
     transform="translate(4.8e-6,-3584.016)" />
</svg>
